<svg xmlns="http://www.w3.org/2000/svg" width="1000" height="300" viewBox="0 0 1000 300"><rect width="100%" height="100%" fill="#DDDDDD"/><path fill="#999999" d="M240.9 181.74h15.34v10.92h-47.2v-10.92h17.29v-49.73q0-2.95.18-6.08l-12.28 10.27q-1.06.82-2.09 1.03t-1.95.03q-.91-.18-1.62-.62t-1.06-.97l-4.6-6.32 26.01-22.12h11.98zM329.11 150q0 11.15-2.39 19.38t-6.61 13.6-9.97 8q-5.75 2.62-12.42 2.62t-12.36-2.62q-5.7-2.63-9.88-8-4.19-5.37-6.55-13.6T266.57 150q0-11.21 2.36-19.41t6.55-13.57q4.18-5.37 9.88-7.99 5.69-2.63 12.36-2.63t12.42 2.63q5.75 2.62 9.97 7.99t6.61 13.57 2.39 19.41m-15.05 0q0-9.26-1.36-15.34-1.35-6.07-3.62-9.67-2.28-3.6-5.23-5.05-2.95-1.44-6.13-1.44-3.13 0-6.05 1.44-2.92 1.45-5.16 5.05t-3.57 9.67q-1.33 6.08-1.33 15.34 0 9.27 1.33 15.34 1.33 6.08 3.57 9.68t5.16 5.04q2.92 1.45 6.05 1.45 3.18 0 6.13-1.45 2.95-1.44 5.23-5.04 2.27-3.6 3.62-9.68 1.36-6.07 1.36-15.34m83.49 0q0 11.15-2.39 19.38t-6.61 13.6-9.97 8q-5.75 2.62-12.42 2.62t-12.36-2.62q-5.7-2.63-9.88-8-4.19-5.37-6.55-13.6T335.01 150q0-11.21 2.36-19.41t6.55-13.57q4.18-5.37 9.88-7.99 5.69-2.63 12.36-2.63t12.42 2.63q5.75 2.62 9.97 7.99t6.61 13.57 2.39 19.41m-15.05 0q0-9.26-1.36-15.34-1.35-6.07-3.62-9.67-2.28-3.6-5.23-5.05-2.95-1.44-6.13-1.44-3.13 0-6.05 1.44-2.92 1.45-5.16 5.05t-3.57 9.67q-1.33 6.08-1.33 15.34 0 9.27 1.33 15.34 1.33 6.08 3.57 9.68t5.16 5.04q2.92 1.45 6.05 1.45 3.18 0 6.13-1.45 2.95-1.44 5.23-5.04 2.27-3.6 3.62-9.68 1.36-6.07 1.36-15.34m83.49 0q0 11.15-2.39 19.38t-6.61 13.6-9.97 8q-5.75 2.62-12.42 2.62t-12.36-2.62q-5.7-2.63-9.88-8-4.19-5.37-6.55-13.6T403.45 150q0-11.21 2.36-19.41t6.55-13.57q4.18-5.37 9.88-7.99 5.69-2.63 12.36-2.63t12.42 2.63q5.75 2.62 9.97 7.99t6.61 13.57 2.39 19.41m-15.05 0q0-9.26-1.36-15.34-1.35-6.07-3.62-9.67-2.28-3.6-5.23-5.05-2.95-1.44-6.13-1.44-3.13 0-6.05 1.44-2.92 1.45-5.16 5.05t-3.57 9.67q-1.33 6.08-1.33 15.34 0 9.27 1.33 15.34 1.33 6.08 3.57 9.68t5.16 5.04q2.92 1.45 6.05 1.45 3.18 0 6.13-1.45 2.95-1.44 5.23-5.04 2.27-3.6 3.62-9.68 1.36-6.07 1.36-15.34m108.74 23.13-7.73 7.61-20-20-20.18 20.12-7.73-7.61 20.18-20.24-19.23-19.23 7.67-7.67 19.23 19.23 19.12-19.11 7.78 7.67-19.17 19.17zm49.09-40.65-7.67-1.36q.88-6.13 3.42-10.76 2.54-4.64 6.34-7.73 3.81-3.1 8.73-4.66 4.93-1.57 10.59-1.57 5.9 0 10.65 1.68t8.12 4.66q3.36 2.98 5.16 7 1.8 4.01 1.8 8.67 0 4.07-.92 7.17-.91 3.09-2.62 5.4-1.71 2.3-4.25 3.89t-5.72 2.65q7.67 2.42 11.44 7.38 3.78 4.96 3.78 12.45 0 6.37-2.36 11.27-2.36 4.89-6.37 8.23-4.02 3.33-9.3 5.04t-11.18 1.71q-6.43 0-11.21-1.47-4.78-1.48-8.32-4.37t-6.01-7.08q-2.48-4.19-4.25-9.67l6.43-2.66q2.54-1.06 4.75-.56t3.21 2.39q1.07 2.07 2.33 4.07 1.27 2.01 3.04 3.57t4.16 2.54q2.39.97 5.7.97 3.71 0 6.49-1.21 2.77-1.21 4.63-3.15 1.86-1.95 2.77-4.34.92-2.39.92-4.81 0-3.07-.65-5.57-.65-2.51-2.72-4.28-2.06-1.77-5.93-2.78-3.86-1-10.35-1v-10.38q5.37-.06 8.91-1.01 3.54-.94 5.63-2.62 2.1-1.68 2.92-4.04.83-2.36.83-5.19 0-6.02-3.36-9.15-3.37-3.13-8.97-3.13-2.6 0-4.78.74t-3.93 2.07q-1.74 1.32-2.92 3.09t-1.77 3.9q-1 2.71-2.62 3.6-1.62.88-4.57.41M728.65 150q0 11.15-2.39 19.38-2.38 8.23-6.6 13.6t-9.97 8q-5.76 2.62-12.42 2.62-6.67 0-12.36-2.62-5.7-2.63-9.89-8t-6.55-13.6-2.36-19.38q0-11.21 2.36-19.41t6.55-13.57 9.89-7.99q5.69-2.63 12.36-2.63 6.66 0 12.42 2.63 5.75 2.62 9.97 7.99t6.6 13.57q2.39 8.2 2.39 19.41m-15.04 0q0-9.26-1.36-15.34-1.35-6.07-3.63-9.67-2.27-3.6-5.22-5.05-2.95-1.44-6.13-1.44-3.13 0-6.05 1.44-2.92 1.45-5.16 5.05-2.25 3.6-3.57 9.67-1.33 6.08-1.33 15.34 0 9.27 1.33 15.34 1.32 6.08 3.57 9.68 2.24 3.6 5.16 5.04 2.92 1.45 6.05 1.45 3.18 0 6.13-1.45 2.95-1.44 5.22-5.04 2.28-3.6 3.63-9.68 1.36-6.07 1.36-15.34m83.48 0q0 11.15-2.39 19.38-2.38 8.23-6.6 13.6t-9.97 8q-5.76 2.62-12.42 2.62-6.67 0-12.36-2.62-5.7-2.63-9.89-8t-6.55-13.6-2.36-19.38q0-11.21 2.36-19.41t6.55-13.57 9.89-7.99q5.69-2.63 12.36-2.63 6.66 0 12.42 2.63 5.75 2.62 9.97 7.99t6.6 13.57q2.39 8.2 2.39 19.41m-15.04 0q0-9.26-1.36-15.34-1.35-6.07-3.63-9.67-2.27-3.6-5.22-5.05-2.95-1.44-6.13-1.44-3.13 0-6.05 1.44-2.92 1.45-5.16 5.05-2.25 3.6-3.57 9.67-1.33 6.08-1.33 15.34 0 9.27 1.33 15.34 1.32 6.08 3.57 9.68 2.24 3.6 5.16 5.04 2.92 1.45 6.05 1.45 3.18 0 6.13-1.45 2.95-1.44 5.22-5.04 2.28-3.6 3.63-9.68 1.36-6.07 1.36-15.34"/></svg>